
      <svg data-logo="logo" xmlns="http://www.w3.org/2000/svg" viewBox="0 0 299 43">
        <g id="logogram" transform="translate(0, 1) rotate(0)"><path fill-rule="evenodd" clip-rule="evenodd" d="M14.8333 6.49796L0.603516 20.6199C3.44972 23.4447 6.70108 25.8252 10.246 27.6877C11.2258 30.2671 12.7617 32.6861 14.8535 34.7621C22.7236 42.5725 35.4835 42.5725 43.3535 34.7621C45.4454 32.6861 46.9813 30.2671 47.9611 27.6875C51.5059 25.8252 54.7574 23.4447 57.6035 20.6199L43.3853 6.50945C43.3747 6.49889 43.3642 6.48834 43.3535 6.47779C35.4835 -1.33269 22.7236 -1.33269 14.8535 6.47779C14.8468 6.48452 14.84 6.49124 14.8333 6.49796ZM41.9919 30.2355C37.8452 31.6244 33.4921 32.3357 29.1035 32.3357C24.7149 32.3357 20.362 31.6244 16.2152 30.2355C16.6645 30.8271 17.1606 31.3948 17.7035 31.9337C23.9996 38.1821 34.2074 38.1821 40.5035 31.9337C41.0464 31.3948 41.5426 30.8271 41.9919 30.2355ZM17.9958 9.02337C19.065 9.72438 20.2018 10.3243 21.3914 10.8133C23.8364 11.8184 26.457 12.3357 29.1035 12.3357C31.75 12.3357 34.3706 11.8184 36.8156 10.8133C38.0052 10.3243 39.1421 9.72437 40.2114 9.02334C33.9938 3.15212 24.2132 3.15213 17.9958 9.02337Z" fill="#3B4158"/></g>
        <g id="logotype" transform="translate(64, 8.5)"><path fill="#422a83" d="M17.34 26L8.17 26L8.17 1.43L17.34 1.43Q21.30 1.43 24.18 2.99Q27.07 4.54 28.65 7.29Q30.22 10.04 30.22 13.75L30.22 13.75Q30.22 17.35 28.65 20.12Q27.07 22.88 24.18 24.44Q21.30 26 17.34 26L17.34 26ZM14.09 6.50L14.09 20.89L16.99 20.89Q20.42 20.89 22.33 19.02Q24.24 17.14 24.24 13.75L24.24 13.75Q24.24 10.28 22.33 8.39Q20.42 6.50 16.99 6.50L16.99 6.50L14.09 6.50ZM41.25 26.25L41.25 26.25Q38.38 26.25 36.10 25.04Q33.83 23.83 32.51 21.55Q31.20 19.28 31.20 16.23L31.20 16.23Q31.20 13.15 32.53 10.91Q33.86 8.67 36.15 7.45Q38.45 6.22 41.32 6.22L41.32 6.22Q44.22 6.22 46.51 7.43Q48.81 8.64 50.14 10.90Q51.47 13.15 51.47 16.23L51.47 16.23Q51.47 19.28 50.10 21.55Q48.73 23.83 46.43 25.04Q44.12 26.25 41.25 26.25ZM41.25 21.13L41.25 21.13Q42.33 21.13 43.29 20.59Q44.26 20.05 44.85 18.96Q45.45 17.88 45.45 16.23L45.45 16.23Q45.45 14.55 44.85 13.49Q44.26 12.42 43.33 11.89Q42.40 11.37 41.32 11.37L41.32 11.37Q40.23 11.37 39.30 11.89Q38.38 12.42 37.80 13.49Q37.22 14.55 37.22 16.23L37.22 16.23Q37.22 17.88 37.76 18.96Q38.31 20.05 39.23 20.59Q40.16 21.13 41.25 21.13ZM62.39 26.25L62.39 26.25Q59.48 26.25 57.28 25.00Q55.07 23.76 53.83 21.52Q52.59 19.28 52.59 16.23L52.59 16.23Q52.59 13.22 53.81 10.98Q55.04 8.74 57.24 7.48Q59.45 6.22 62.39 6.22L62.39 6.22Q63.79 6.22 65.13 6.50Q66.48 6.78 67.69 7.47Q68.90 8.15 69.84 9.32Q70.79 10.49 71.34 12.28L71.34 12.28L65.64 14.10Q65.26 12.73 64.42 12.00Q63.58 11.26 62.28 11.26L62.28 11.26Q61.20 11.26 60.37 11.82Q59.55 12.38 59.10 13.49Q58.64 14.59 58.64 16.23L58.64 16.23Q58.64 17.81 59.10 18.95Q59.55 20.09 60.37 20.68Q61.20 21.27 62.28 21.27L62.28 21.27Q63.86 21.27 64.68 20.33Q65.50 19.38 65.75 18.02L65.75 18.02L71.63 19.42Q71.17 21.17 70.00 22.73Q68.83 24.29 66.94 25.27Q65.05 26.25 62.39 26.25ZM81.92 26.25L81.92 26.25Q78.70 26.25 76.98 24.48Q75.27 22.71 75.27 19.35L75.27 19.35L75.27 11.26L72.15 11.26L72.15 6.47L85.07 6.47L85.07 11.26L81.18 11.26L81.18 19.42Q81.18 20.26 81.72 20.73Q82.27 21.20 83.04 21.20L83.04 21.20Q83.39 21.20 83.68 21.12Q83.98 21.03 84.26 20.86L84.26 20.86L85.73 25.20Q84.89 25.65 83.96 25.95Q83.04 26.25 81.92 26.25ZM78.98 6.47L73.69 8.04L73.69 6.47Q74.46 6.47 74.95 5.98Q75.44 5.49 75.44 4.72L75.44 4.72L75.44 1.71L81.18 1.71L81.18 3.81Q81.18 4.30 80.94 4.88Q80.69 5.45 80.18 5.89Q79.68 6.33 78.98 6.47L78.98 6.47ZM96.37 26.25L96.37 26.25Q93.50 26.25 91.23 25.04Q88.95 23.83 87.64 21.55Q86.33 19.28 86.33 16.23L86.33 16.23Q86.33 13.15 87.66 10.91Q88.99 8.67 91.28 7.45Q93.57 6.22 96.44 6.22L96.44 6.22Q99.35 6.22 101.64 7.43Q103.93 8.64 105.26 10.90Q106.59 13.15 106.59 16.23L106.59 16.23Q106.59 19.28 105.23 21.55Q103.86 23.83 101.55 25.04Q99.24 26.25 96.37 26.25ZM96.37 21.13L96.37 21.13Q97.46 21.13 98.42 20.59Q99.38 20.05 99.98 18.96Q100.57 17.88 100.57 16.23L100.57 16.23Q100.57 14.55 99.98 13.49Q99.38 12.42 98.45 11.89Q97.53 11.37 96.44 11.37L96.44 11.37Q95.36 11.37 94.43 11.89Q93.50 12.42 92.92 13.49Q92.35 14.55 92.35 16.23L92.35 16.23Q92.35 17.88 92.89 18.96Q93.43 20.05 94.36 20.59Q95.29 21.13 96.37 21.13ZM114.47 26L108.55 26L108.55 6.47L114.47 6.47L114.47 26ZM114.47 17.60L113.56 17.60L114.47 11.19Q115.10 8.92 116.67 7.61Q118.25 6.29 120.70 6.29L120.70 6.29L120.70 12.45Q120.31 12.38 119.96 12.35Q119.61 12.31 119.26 12.31L119.26 12.31Q117.97 12.31 116.88 12.93Q115.80 13.54 115.13 14.71Q114.47 15.88 114.47 17.60L114.47 17.60ZM135.82 26.25L135.82 26.25Q133.26 26.25 131.35 24.91Q129.45 23.59 128.41 21.33Q127.38 19.07 127.38 16.23L127.38 16.23Q127.38 13.43 128.41 11.16Q129.45 8.88 131.35 7.55Q133.26 6.22 135.82 6.22L135.82 6.22Q138.06 6.22 139.72 7.43Q141.38 8.64 142.05 10.81L142.05 10.81L142.05 0.10L147.96 0.10L147.96 26L145.06 26Q143.66 26 142.85 25.21Q142.05 24.43 142.05 23.02L142.05 23.02L142.05 21.70Q141.38 23.83 139.72 25.04Q138.06 26.25 135.82 26.25ZM137.74 21.06L137.74 21.06Q138.90 21.06 139.88 20.50Q140.86 19.95 141.45 18.86Q142.05 17.77 142.05 16.23L142.05 16.23Q142.05 14.73 141.45 13.64Q140.86 12.56 139.88 11.96Q138.90 11.37 137.74 11.37L137.74 11.37Q136.55 11.37 135.57 11.96Q134.59 12.56 134.01 13.64Q133.44 14.73 133.44 16.23L133.44 16.23Q133.44 17.77 134.01 18.86Q134.59 19.95 135.59 20.50Q136.59 21.06 137.74 21.06ZM160.63 26.25L160.63 26.25Q158.50 26.25 156.55 25.58Q154.61 24.91 153.12 23.64Q151.64 22.36 150.78 20.54Q149.92 18.72 149.92 16.38L149.92 16.38Q149.92 14.13 150.74 12.28Q151.57 10.42 152.98 9.06Q154.40 7.69 156.27 6.96Q158.15 6.22 160.25 6.22L160.25 6.22Q161.96 6.22 163.52 6.68Q165.08 7.13 166.32 8.01Q167.56 8.88 168.28 10.07Q169.00 11.26 169.00 12.73L169.00 12.73Q169.00 14.59 167.95 15.81Q166.90 17.04 165.20 17.74Q163.50 18.44 161.49 18.74Q159.48 19.04 157.52 19L157.52 19Q157.27 19 156.94 18.98Q156.61 18.96 156.33 18.95Q156.05 18.93 155.91 18.93L155.91 18.93Q156.12 19.73 156.80 20.38Q157.48 21.03 158.53 21.41Q159.58 21.80 160.70 21.80L160.70 21.80Q161.82 21.80 162.85 21.41Q163.89 21.03 164.73 20.43Q165.57 19.84 166.16 19.11L166.16 19.11L169.94 22.08Q168.89 23.48 167.39 24.41Q165.88 25.34 164.15 25.79Q162.42 26.25 160.63 26.25ZM157.55 15.11L157.55 15.11Q158.50 15.11 159.51 15.01Q160.53 14.90 161.38 14.64Q162.24 14.38 162.78 13.91Q163.33 13.43 163.33 12.70L163.33 12.70Q163.33 12.10 162.91 11.65Q162.49 11.19 161.79 10.95Q161.09 10.70 160.28 10.70L160.28 10.70Q158.88 10.70 157.83 11.37Q156.78 12.03 156.22 13.03Q155.66 14.03 155.59 15.04L155.59 15.04Q155.91 15.08 156.45 15.10Q156.99 15.11 157.55 15.11ZM177.43 26L171.52 26L171.52 0.10L177.43 0.10L177.43 14.10Q179.04 13.75 180.49 12.66Q181.95 11.58 183.00 9.97Q184.05 8.36 184.43 6.47L184.43 6.47L190.70 6.47Q190.17 8.64 188.91 10.60Q187.65 12.56 185.99 14.03Q184.33 15.50 182.47 16.27L182.47 16.27Q183.91 16.62 185.27 17.56Q186.64 18.51 187.81 19.82Q188.98 21.13 189.80 22.73Q190.63 24.32 190.94 26L190.94 26L184.61 26Q184.29 24.50 183.59 23.22Q182.89 21.94 181.93 20.99Q180.97 20.05 179.81 19.45Q178.66 18.86 177.43 18.68L177.43 18.68L177.43 26ZM197.98 26L192.06 26L192.06 0.10L197.98 0.10L197.98 10.63Q198.40 9.27 199.34 8.29Q200.29 7.31 201.53 6.77Q202.77 6.22 204.10 6.22L204.10 6.22Q206.34 6.22 207.99 7.24Q209.63 8.25 210.54 10.11Q211.45 11.96 211.45 14.52L211.45 14.52L211.45 26L205.54 26L205.54 15.50Q205.54 13.50 204.52 12.37Q203.51 11.23 201.79 11.23L201.79 11.23Q200.64 11.23 199.78 11.82Q198.92 12.42 198.45 13.47Q197.98 14.52 197.98 15.85L197.98 15.85L197.98 26ZM223.32 26.25L223.32 26.25Q220.45 26.25 218.17 25.04Q215.90 23.83 214.58 21.55Q213.27 19.28 213.27 16.23L213.27 16.23Q213.27 13.15 214.60 10.91Q215.93 8.67 218.22 7.45Q220.52 6.22 223.39 6.22L223.39 6.22Q226.29 6.22 228.58 7.43Q230.88 8.64 232.21 10.90Q233.54 13.15 233.54 16.23L233.54 16.23Q233.54 19.28 232.17 21.55Q230.81 23.83 228.50 25.04Q226.19 26.25 223.32 26.25ZM223.32 21.13L223.32 21.13Q224.40 21.13 225.36 20.59Q226.33 20.05 226.92 18.96Q227.52 17.88 227.52 16.23L227.52 16.23Q227.52 14.55 226.92 13.49Q226.33 12.42 225.40 11.89Q224.47 11.37 223.39 11.37L223.39 11.37Q222.30 11.37 221.37 11.89Q220.45 12.42 219.87 13.49Q219.29 14.55 219.29 16.23L219.29 16.23Q219.29 17.88 219.83 18.96Q220.38 20.05 221.30 20.59Q222.23 21.13 223.32 21.13Z"/></g>
        
      </svg>
    